<?xml version="1.0" encoding="utf-8"?>
<!-- Generator: Adobe Illustrator 19.0.0, SVG Export Plug-In . SVG Version: 6.00 Build 0)  -->
<svg version="1.1" id="Layer_1" xmlns="http://www.w3.org/2000/svg" xmlns:xlink="http://www.w3.org/1999/xlink" x="0px" y="0px"
	 viewBox="0 0 96 96" style="enable-background:new 0 0 96 96;" xml:space="preserve">
<style type="text/css">
	.st0{fill:#333333;}
</style>
<g id="XMLID_2_">
	<path id="XMLID_7_" class="st0" d="M57.2,65.2v-5.7c0-0.3-0.1-0.6-0.3-0.8s-0.5-0.3-0.8-0.3h-3.4V40c0-0.3-0.1-0.6-0.3-0.8
		s-0.5-0.3-0.8-0.3H40c-0.3,0-0.6,0.1-0.8,0.3s-0.3,0.5-0.3,0.8v5.7c0,0.3,0.1,0.6,0.3,0.8s0.5,0.3,0.8,0.3h3.4v11.5H40
		c-0.3,0-0.6,0.1-0.8,0.3s-0.3,0.5-0.3,0.8v5.7c0,0.3,0.1,0.6,0.3,0.8s0.5,0.3,0.8,0.3h16c0.3,0,0.6-0.1,0.8-0.3
		S57.2,65.5,57.2,65.2z M52.6,33.1v-5.7c0-0.3-0.1-0.6-0.3-0.8s-0.5-0.3-0.8-0.3h-6.9c-0.3,0-0.6,0.1-0.8,0.3s-0.3,0.5-0.3,0.8v5.7
		c0,0.3,0.1,0.6,0.3,0.8s0.5,0.3,0.8,0.3h6.9c0.3,0,0.6-0.1,0.8-0.3S52.6,33.4,52.6,33.1z M75.5,48c0,5-1.2,9.6-3.7,13.8
		c-2.5,4.2-5.8,7.5-10,10c-4.2,2.5-8.8,3.7-13.8,3.7s-9.6-1.2-13.8-3.7c-4.2-2.5-7.5-5.8-10-10S20.5,53,20.5,48s1.2-9.6,3.7-13.8
		s5.8-7.5,10-10S43,20.5,48,20.5s9.6,1.2,13.8,3.7s7.5,5.8,10,10C74.3,38.4,75.5,43,75.5,48z"/>
</g>
</svg>
